<svg width="40" height="34" viewBox="0 0 40 34" fill="none" xmlns="http://www.w3.org/2000/svg">
<path d="M0.0273438 0V33.4287H39.0275V0H0.0273438ZM35.3132 29.7144H3.74167V3.71433H35.3133V29.7144H35.3132Z" fill="currentColor"/>
<path d="M9.29688 20.3848L9.82422 20.3115L12.3096 13.8906H13.1348L15.5762 20.3115L16.0986 20.3848V21H14.0576V20.3848L14.5947 20.292L14.126 18.9834H11.2793L10.7959 20.292L11.333 20.3848V21H9.29688V20.3848ZM11.5771 18.1777H13.833L12.7295 15.126H12.7002L11.5771 18.1777Z" fill="currentColor"/>
<path d="M21.2158 13.8906C21.9743 13.8906 22.5635 14.0859 22.9834 14.4766C23.4066 14.8672 23.6182 15.3815 23.6182 16.0195C23.6182 16.6641 23.4066 17.18 22.9834 17.5674C22.5635 17.9548 21.9743 18.1484 21.2158 18.1484H19.707V20.248L20.5029 20.3848V21H17.9492V20.3848L18.7451 20.248V14.6475L17.9492 14.5107V13.8906H18.7451H21.2158ZM19.707 17.3965H21.2158C21.6976 17.3965 22.0573 17.2679 22.2949 17.0107C22.5358 16.7503 22.6562 16.4232 22.6562 16.0293C22.6562 15.6354 22.5358 15.3066 22.2949 15.043C22.0573 14.7793 21.6976 14.6475 21.2158 14.6475H19.707V17.3965Z" fill="currentColor"/>
<path d="M25.5518 14.5107V13.8906H28.1055V14.5107L27.3096 14.6475V20.248L28.1055 20.3848V21H25.5518V20.3848L26.3477 20.248V14.6475L25.5518 14.5107Z" fill="currentColor"/>
</svg>
