<svg width="26" height="11" viewBox="0 0 26 11" fill="none" xmlns="http://www.w3.org/2000/svg">
<path fill-rule="evenodd" clip-rule="evenodd" d="M11.5909 5.15632L11.5979 5.16555L11.5718 5.20243C11.3218 5.55465 10.9601 6.0211 10.512 6.48362C9.57805 7.44768 8.44611 8.21309 7.2856 8.21309C5.94295 8.21309 4.78613 7.75604 3.9796 7.11989C3.1518 6.46695 2.78823 5.71289 2.78906 5.14722C2.78988 4.59872 3.13438 3.91733 3.94852 3.33068C4.74778 2.75476 5.91573 2.34424 7.29726 2.34424C8.47692 2.34424 9.61259 3.07113 10.5368 3.96414C10.9826 4.39489 11.3424 4.829 11.5909 5.15632ZM13.0022 3.71339C13.2798 3.36479 13.6425 2.94642 14.0778 2.52584C15.1208 1.5181 16.7392 0.344238 18.7071 0.344238C20.4731 0.344238 22.0578 0.866974 23.2251 1.70805C24.3774 2.53841 25.2132 3.75777 25.2153 5.14426C25.2173 6.51359 24.4006 7.79321 23.2634 8.6902C22.1049 9.60396 20.512 10.2131 18.7188 10.2131C16.7201 10.2131 15.0921 8.94483 14.0559 7.87521C13.6313 7.43698 13.2762 7.00119 13.0022 6.6351C12.7281 7.00119 12.373 7.43698 11.9485 7.87521C10.9123 8.94483 9.2843 10.2131 7.2856 10.2131C5.49237 10.2131 3.89949 9.60396 2.741 8.6902C1.60379 7.79321 0.787037 6.51359 0.789066 5.14426C0.79112 3.75777 1.62695 2.53841 2.7793 1.70805C3.94653 0.866974 5.53125 0.344238 7.29726 0.344238C9.26514 0.344238 10.8836 1.5181 11.9265 2.52584C12.3618 2.94642 12.7246 3.36479 13.0022 3.71339ZM14.4135 5.15632L14.4065 5.16555L14.4326 5.20243C14.6826 5.55465 15.0443 6.0211 15.4924 6.48362C16.4263 7.44768 17.5582 8.21309 18.7188 8.21309C20.0614 8.21309 21.2182 7.75604 22.0248 7.11989C22.8526 6.46695 23.2161 5.71289 23.2153 5.14722C23.2145 4.59872 22.87 3.91733 22.0558 3.33068C21.2566 2.75476 20.0886 2.34424 18.7071 2.34424C17.5274 2.34424 16.3918 3.07113 15.4675 3.96414C15.0217 4.39489 14.6619 4.829 14.4135 5.15632Z" fill="currentColor"/>
</svg>
