<svg width="18" height="18" viewBox="0 0 18 18" fill="currentColor" xmlns="http://www.w3.org/2000/svg">
<path d="M2.25 8.38647V9.61378C2.25 10.2351 1.74632 10.7388 1.125 10.7388C0.503684 10.7388 0 10.2351 0 9.61378V8.38647C0 7.76516 0.503684 7.26147 1.125 7.26147C1.74632 7.26147 2.25 7.76516 2.25 8.38647Z" />
<path d="M15.7505 8.41847C15.7502 8.40781 15.75 8.39714 15.75 8.38647C15.75 7.76516 16.2537 7.26147 16.875 7.26147C17.4963 7.26147 18 7.76516 18 8.38647C18 8.39716 17.9999 8.40785 17.9995 8.41847H18V9.64574H17.9995C17.9827 10.2523 17.4856 10.7387 16.875 10.7387C16.2644 10.7387 15.7674 10.2523 15.7505 9.64574H15.75V8.41843H15.7505V8.41847Z" />
<path d="M6.13672 12.0681V13.2954C6.13672 13.9167 5.63307 14.4204 5.01172 14.4204C4.39037 14.4204 3.88672 13.9167 3.88672 13.2954V12.0681C3.88672 11.4468 4.3904 10.9431 5.01172 10.9431C5.63304 10.9431 6.13672 11.4468 6.13672 12.0681V12.0681ZM6.13672 4.70447V8.71868H6.13644C6.12287 9.32818 5.62449 9.81812 5.01172 9.81812C4.39895 9.81812 3.90061 9.32818 3.88704 8.71868H3.88672V4.70447C3.88672 4.08315 4.3904 3.57947 5.01172 3.57947C5.63304 3.57947 6.13672 4.08315 6.13672 4.70447Z" />
<path d="M11.8633 5.93174C11.8633 6.55305 12.3669 7.05674 12.9883 7.05674C13.6096 7.05674 14.1133 6.55305 14.1133 5.93174V4.70447C14.1133 4.08315 13.6096 3.57947 12.9883 3.57947C12.367 3.57947 11.8633 4.08315 11.8633 4.70447V5.93174Z" />
<path d="M7.875 2.3523C7.875 2.97359 8.37868 3.4773 9 3.4773C9.62132 3.4773 10.125 2.97359 10.125 2.3523V1.125C10.125 0.503684 9.62132 0 9 0C8.37868 0 7.875 0.503684 7.875 1.125V2.3523ZM7.875 15.6477C7.875 15.0264 8.37868 14.5227 9 14.5227C9.62132 14.5227 10.125 15.0264 10.125 15.6477V16.875C10.125 17.4963 9.62132 18 9 18C8.37868 18 7.875 17.4963 7.875 16.875V15.6477Z" />
<path d="M11.8633 9.30701C11.8633 8.68569 12.3669 8.18201 12.9883 8.18201C13.6096 8.18201 14.1133 8.68569 14.1133 9.30701V13.2957C14.1133 13.917 13.6096 14.4207 12.9883 14.4207C12.367 14.4207 11.8633 13.917 11.8633 13.2957V9.30701Z" />
<path d="M10.125 5.72754V12.2729C10.125 12.8943 9.62132 13.3979 9 13.3979C8.37868 13.3979 7.875 12.8943 7.875 12.2729V5.72754C7.875 5.10619 8.37868 4.60254 9 4.60254C9.62132 4.60254 10.125 5.10619 10.125 5.72754Z" />
</svg>
