<svg width="61" height="28" viewBox="0 0 61 28" fill="none" xmlns="http://www.w3.org/2000/svg">
<path d="M0 27.583H16.6213V23.0553H5.1234V16.0553H15.7277V11.5277H5.1234V4.97447H16.6213V0.446809H0V27.583ZM38.8426 20.1957C38.8426 14.7745 38.4851 13.583 31.1872 11.8255C26.5106 10.6936 26.4213 10.6043 26.4213 7.50638C26.4213 5.15319 27.0468 4.40851 30.5021 4.40851C32.8553 4.40851 35.5064 4.73617 37.7702 5.21277L38.3362 0.893617C35.6553 0.268085 32.7957 0 30.4426 0C23.5617 0 21.2979 2.44255 21.2979 7.38723C21.2979 13.1362 22.1915 14.3872 28.7447 15.8766C33.6298 16.9489 33.7192 17.1872 33.7192 20.1957C33.7192 22.817 33.0936 23.5915 29.4 23.5915C26.7192 23.5915 24.2766 23.1149 21.7447 22.3404L20.8511 26.3617C22.6383 27.2255 26.2426 28 29.3404 28C37.3234 27.9702 38.8426 25.3191 38.8426 20.1957ZM48.2851 10.0979C48.2851 5.92766 50.2808 5.1234 55.1064 5.1234C55.9702 5.1234 57.7574 5.24255 58.9489 5.48085L59.2766 1.31064C58.0553 1.01276 56.0894 0.834043 54.6 0.834043C47.183 0.834043 43.3404 3.12766 43.3404 10.2766V20.1957C43.3404 24.8723 44.7404 27.9702 51.7404 27.9702C58.1447 27.9702 60.1106 24.783 60.1106 20.5532V18.5872C60.1106 13.9106 58.1149 11.8553 53.1702 11.8553C51.4128 11.8553 49.7447 12.0936 48.3149 12.6V10.0979H48.2851ZM52.366 16.1745C54.1532 16.1745 55.1064 16.8 55.1064 18.7362V20.7319C55.1064 22.817 54.3021 23.7106 51.7106 23.7106C49.1489 23.7106 48.2851 22.966 48.2851 20.7319V17.0085C49.4468 16.5319 50.9064 16.1745 52.366 16.1745Z" fill="currentColor"/>
</svg>
