<svg width="34" height="33" viewBox="0 0 34 33" fill="none" xmlns="http://www.w3.org/2000/svg">
<path d="M22.8872 22.8107C24.106 22.6846 25.0306 21.6339 24.9886 20.3731C24.9465 19.1123 23.8959 18.1037 22.6351 18.1037H22.551C21.2482 18.1457 20.2395 19.2384 20.2816 20.5412C20.3236 21.1716 20.5758 21.718 20.954 22.0962C19.5251 24.912 17.3397 26.9713 14.0616 28.6944C11.8342 29.8711 9.52277 30.2914 7.21131 29.9972C5.32011 29.7451 3.84918 28.9045 2.9246 27.5176C1.57975 25.4583 1.45366 23.2309 2.58838 21.0035C3.38689 19.4065 4.64769 18.2298 5.44619 17.6414C5.27808 17.0951 5.02592 16.1705 4.89984 15.498C-1.19401 19.9108 -0.563611 25.8786 1.28556 28.6944C2.67244 30.7957 5.48822 32.0985 8.59818 32.0985C9.43872 32.0985 10.2792 32.0145 11.1198 31.8044C16.4992 30.7537 20.5758 27.5597 22.8872 22.8107Z" fill="currentColor"/>
<path d="M30.2809 17.5993C27.0869 13.8589 22.3799 11.7996 17.0005 11.7996H16.3281C15.9499 11.0431 15.1514 10.5388 14.2688 10.5388H14.1848C12.8819 10.5808 11.8733 11.6735 11.9153 12.9764C11.9574 14.2372 13.008 15.2458 14.2688 15.2458H14.3529C15.2775 15.2038 16.076 14.6154 16.4122 13.8169H17.1687C20.3627 13.8169 23.3886 14.7415 26.1203 16.5486C28.2216 17.9355 29.7346 19.7426 30.5751 21.928C31.2896 23.6931 31.2476 25.4162 30.4911 26.8872C29.3143 29.1146 27.3391 30.3333 24.7334 30.3333C23.0524 30.3333 21.4554 29.829 20.6148 29.4508C20.1525 29.871 19.312 30.5435 18.7236 30.9637C20.5308 31.8043 22.3799 32.2666 24.1451 32.2666C28.1796 32.2666 31.1635 30.0392 32.2982 27.8117C33.517 25.3742 33.4329 21.1715 30.2809 17.5993Z" fill="currentColor"/>
<path d="M8.93133 23.5253C8.97336 24.7861 10.024 25.7948 11.2848 25.7948H11.3689C12.6717 25.7527 13.6803 24.6601 13.6383 23.3572C13.5963 22.0964 12.5456 21.0878 11.2848 21.0878H11.2008C11.1167 21.0878 10.9906 21.0878 10.9066 21.1298C9.18349 18.272 8.46904 15.1621 8.7212 11.7999C8.8893 9.27833 9.72984 7.09295 11.2008 5.2858C12.4195 3.73082 14.773 2.97434 16.37 2.93231C20.8249 2.84826 22.716 8.39577 22.8421 10.6232C23.3885 10.7493 24.3131 11.0434 24.9435 11.2536C24.4391 4.44527 20.2365 0.915039 16.2019 0.915039C12.4195 0.915039 8.93133 3.64677 7.54445 7.68132C5.61123 13.0607 6.87203 18.23 9.22552 22.3066C9.01538 22.6008 8.8893 23.063 8.93133 23.5253Z" fill="currentColor"/>
</svg>
