<svg width="24" height="30" viewBox="0 0 24 30" fill="none" xmlns="http://www.w3.org/2000/svg">
<path fill-rule="evenodd" clip-rule="evenodd" d="M7.49679 2.07821C7.37669 1.11186 8.11898 0.253828 9.09256 0.233624C10.5785 0.202787 11.9 1.17354 12.3149 2.60071L12.4941 3.21734C13.0204 5.02748 13.0497 6.94589 12.579 8.77125L12.4662 9.20884L12.5032 9.20837L11.5284 11.4458L11.5687 11.5555L11.5702 11.5597L11.5757 11.575C11.5806 11.5889 11.588 11.6102 11.5976 11.6385C11.6167 11.695 11.6444 11.7794 11.6781 11.889C11.7454 12.1082 11.8362 12.4276 11.9291 12.825C12.115 13.6207 12.3081 14.7247 12.3381 15.9599C12.3984 18.4345 11.8056 21.3921 9.24525 23.4869L9.6147 23.9385C12.3704 21.6838 12.9839 18.5126 12.9214 15.9457C12.8901 14.6602 12.6896 13.5153 12.4972 12.6923C12.401 12.2804 12.3065 11.948 12.2358 11.7177C12.2033 11.612 12.1759 11.5278 12.1555 11.4671L13.1437 9.19917C15.8947 9.15612 20.2112 9.04943 21.6647 9.01271C21.5827 9.02828 21.5008 9.04814 21.4191 9.07244L14.6285 11.0928C13.3253 11.4805 12.5832 12.8512 12.9709 14.1544C13.239 15.0554 13.977 15.6883 14.8377 15.8649C13.5866 16.2852 12.8844 17.625 13.2637 18.9C13.546 19.8487 14.3492 20.5001 15.268 20.6347C14.296 21.1885 13.7967 22.3566 14.1294 23.475C14.428 24.4785 15.3095 25.1494 16.2942 25.2277C15.453 25.8197 15.0425 26.9031 15.352 27.9434C15.5998 28.7761 16.2489 29.3798 17.0253 29.6059C14.8482 30.0084 12.2935 30.0034 10.0905 29.9992C9.86904 29.9987 9.65112 29.9983 9.43749 29.9983C4.36629 29.9983 0.255262 25.8873 0.255262 20.8161C0.255262 19.1722 0.890369 17.3753 1.92157 15.6974C1.96639 15.6244 2.01195 15.5517 2.05825 15.4793L7.36141 7.01747C7.76356 6.34696 7.92966 5.56112 7.83323 4.78522L7.49679 2.07821ZM22.6171 13.853L22.7051 13.8268C22.7049 13.8421 22.7046 13.8574 22.7044 13.8727C22.6754 13.8656 22.6463 13.859 22.6171 13.853ZM22.0692 23.6812L22.0402 23.6899L22.0682 23.6959L22.0692 23.6812ZM21.5855 14.4644C22.5798 14.1686 23.6257 14.7348 23.9215 15.7292C24.2173 16.7235 23.6511 17.7694 22.6568 18.0652L16.159 19.9984C15.1647 20.2942 14.1188 19.728 13.8229 18.7337C13.5271 17.7393 14.0934 16.6934 15.0877 16.3976L21.5855 14.4644ZM23.9215 20.5617C23.6257 19.5674 22.5798 19.0011 21.5855 19.2969L15.9534 20.9726C14.959 21.2684 14.3928 22.3143 14.6886 23.3086C14.9844 24.303 16.0303 24.8692 17.0247 24.5734L22.6568 22.8977C23.6511 22.6019 24.2173 21.556 23.9215 20.5617ZM21.0073 24.3011C22.0017 24.0053 23.0476 24.5715 23.3434 25.5658C23.6392 26.5602 23.073 27.6061 22.0786 27.9019L18.2473 29.0418C17.2529 29.3376 16.207 28.7714 15.9112 27.777C15.6154 26.7827 16.1816 25.7368 17.176 25.441L21.0073 24.3011ZM23.9215 10.8964C23.6257 9.90207 22.5798 9.33582 21.5855 9.63165L14.7949 11.652C13.8005 11.9478 13.2343 12.9937 13.5301 13.988C13.8259 14.9823 14.8718 15.5486 15.8662 15.2528L22.6568 13.2325C23.6511 12.9366 24.2173 11.8907 23.9215 10.8964Z" fill="#FFD576"/>
</svg>
