<svg width="421" height="382" viewBox="0 0 421 382" fill="none" xmlns="http://www.w3.org/2000/svg">
<path d="M385 191.004C385 296.491 298.812 382 192.504 382C86.1884 382 0 296.491 0 191.004C0 85.5164 86.1884 0 192.504 0C298.812 0 385 85.5164 385 191.004ZM241.352 165.205C239.865 162.621 238.354 160.079 236.823 157.58C242.772 158.566 248.45 159.736 253.799 161.067C252.119 166.313 250.163 171.721 247.937 177.239C245.858 173.237 243.663 169.222 241.352 165.205ZM238.194 198.622C235.555 203.822 232.699 209.06 229.63 214.298C226.703 219.31 223.681 224.156 220.593 228.813C211.746 229.665 202.473 230.12 192.922 230.12H192.167H192.182C184.814 230.107 177.608 229.819 170.633 229.286C166.926 223.765 163.307 217.96 159.824 211.907C155.117 203.729 150.926 195.564 147.273 187.562C149.927 182.328 152.801 177.055 155.89 171.782L152 169.5L148.063 167.253C146.191 170.464 144.393 173.673 142.671 176.874C140.53 171.579 138.64 166.39 137.009 161.353C136.807 160.735 136.61 160.118 136.417 159.504C142.215 158.259 148.345 157.202 154.744 156.357C152.475 159.896 150.245 163.53 148.063 167.253L152 169.5L155.89 171.782C159.279 165.982 162.792 160.405 166.391 155.084C174.498 154.375 182.946 154 191.623 154H192.341H192.363L192.5 145.5L192.436 135.911H191.623C187.849 135.914 184.115 135.982 180.427 136.112C183.52 132.299 186.635 128.686 189.751 125.292C190.449 126.031 191.148 126.782 191.846 127.545C194.299 130.222 196.755 133.044 199.202 136.001C196.952 135.947 194.687 135.917 192.407 135.911H192.436L192.5 145.5L192.363 154C199.531 154.014 206.546 154.288 213.345 154.794C217.532 160.896 221.617 167.36 225.529 174.132C230.283 182.359 234.512 190.574 238.194 198.622ZM248.391 224.565C243.252 225.674 237.85 226.635 232.23 227.432C233.999 224.618 235.743 221.746 237.457 218.82C239.312 215.641 241.093 212.463 242.8 209.295C244.91 214.503 246.776 219.608 248.391 224.565ZM143.421 95.334C147.329 95.4551 152.723 96.9911 158.909 100.303C166.3 104.222 174.718 110.553 183.387 118.87C178.345 124.338 173.334 130.326 168.424 136.772C155.429 137.742 143.131 139.515 131.824 141.986C130.144 133.832 129.308 126.404 129.316 120.037C129.309 113.293 130.263 107.784 131.793 103.946C133.352 100.066 135.209 97.9942 137.351 96.7515C138.939 95.8503 140.753 95.3488 143.266 95.3343C143.317 95.3339 143.369 95.3338 143.421 95.334ZM274.256 265.995C274.256 265.984 274.256 265.973 274.256 265.962C274.246 257.209 273.03 247.6 270.713 237.352C274.094 236.275 277.345 235.126 280.456 233.908C291.949 229.375 301.578 223.945 308.819 217.251C312.432 213.893 315.458 210.185 317.642 206.009C319.812 201.856 321.103 197.184 321.103 192.381V192.242V192.104L321.098 192.904L321.103 192.33V192.104L321.098 192.904L321.103 192.33L321.1 192.555L321.103 192.352V192.33L321.1 192.555L321.103 192.352V192.308C321.11 187.483 319.826 182.804 317.657 178.629C313.804 171.292 307.499 165.38 299.662 160.263C290.831 154.547 279.873 149.793 267.249 146.006C269.283 136.641 270.334 127.909 270.352 120.07C270.344 112.231 269.307 105.248 266.968 99.317C264.651 93.4083 260.895 88.4868 255.648 85.4671C251.774 83.2241 247.375 82.1933 242.814 82.2006C235.682 82.2151 228.139 84.596 220.305 88.7263C212.587 92.8285 204.499 98.679 196.337 106.023C195.182 104.908 194.027 103.82 192.873 102.762C184.452 95.0509 176.068 88.8443 167.829 84.4401C159.59 80.0505 151.432 77.347 143.266 77.3179C143.158 77.3176 143.05 77.3178 142.942 77.3186C142.899 77.3183 142.856 77.318 142.813 77.3179C137.645 77.3034 132.447 78.4947 127.857 81.1245L127.98 81.3371C121.835 84.9809 117.537 90.8153 114.988 97.362C112.351 104.084 111.28 111.694 111.265 120.037C111.274 128.203 112.33 137.121 114.347 146.609C110.781 147.734 107.357 148.939 104.089 150.219C92.5884 154.752 82.9671 160.175 75.7186 166.869C72.1124 170.227 69.0868 173.942 66.9027 178.11C64.726 182.264 63.4417 186.936 63.4417 191.746V191.498V191.79V191.834L63.4416 191.893L63.4417 191.812V191.834L63.4416 191.893L63.4417 191.812C63.4272 196.637 64.7115 201.323 66.8882 205.498C70.7338 212.827 77.0391 218.74 84.8827 223.864C94.0218 229.773 105.438 234.657 118.619 238.506C116.355 248.466 115.185 257.736 115.169 266.01C115.176 273.842 116.214 280.833 118.553 286.756C120.87 292.672 124.626 297.593 129.881 300.613C133.747 302.849 138.146 303.887 142.706 303.88C149.839 303.865 157.381 301.484 165.223 297.347C172.94 293.248 181.025 287.4 189.186 280.059C190.34 281.174 191.494 282.26 192.647 283.318C201.068 291.022 209.446 297.236 217.684 301.64C225.93 306.03 234.074 308.733 242.248 308.762C247.398 308.777 252.584 307.585 257.152 304.954C263.504 301.335 267.933 295.397 270.533 288.718C273.156 281.996 274.241 274.386 274.256 266.043C274.256 266.027 274.256 266.011 274.256 265.995ZM248.142 289.345C246.56 290.236 244.753 290.731 242.248 290.746C238.314 290.775 232.705 289.256 226.214 285.768C218.9 281.873 210.572 275.601 201.997 267.365C207.644 261.25 213.254 254.483 218.729 247.148C230.943 246.127 242.516 244.392 253.196 242.033C255.162 250.967 256.137 259.084 256.128 265.962C256.142 272.704 255.192 278.203 253.657 282.046C252.093 285.925 250.229 287.995 248.08 289.238L248.142 289.345ZM253.237 187.947C256.914 179.577 260.024 171.376 262.542 163.471C266.525 164.679 270.276 165.981 273.766 167.365C283.881 171.351 291.746 176.059 296.593 180.607C299.031 182.87 300.707 185.067 301.708 187.016C302.724 188.972 303.116 190.636 303.123 192.308V192.33V192.286V192.308V192.33V192.286L303.13 192.607L303.114 192.692L303.123 192.33C303.109 194.009 302.717 195.651 301.708 197.608C299.989 200.98 296.092 205.112 289.968 209.046C283.863 213.009 275.668 216.741 265.918 219.901C265.842 219.664 265.766 219.426 265.689 219.189C262.424 209.113 258.261 198.62 253.237 187.947ZM182.827 273.635C175.204 280.477 167.773 285.818 160.962 289.413C154.005 293.093 147.727 294.893 142.706 294.886C139.476 294.879 136.787 294.189 134.426 292.832C131.254 290.995 128.784 287.99 126.979 283.475C125.196 278.974 124.224 273.037 124.224 266.01C124.208 258.644 125.271 250.138 127.371 240.848C128.424 241.105 129.486 241.357 130.558 241.602C139.938 243.748 150.023 245.417 160.636 246.542C167.823 256.594 175.293 265.686 182.827 273.635ZM202.691 112.442C210.322 105.598 217.754 100.263 224.558 96.6675C231.516 92.98 237.794 91.1798 242.814 91.1943C246.037 91.2016 248.734 91.8912 251.102 93.2413C254.266 95.0778 256.737 98.083 258.534 102.598C260.318 107.099 261.297 113.044 261.289 120.07C261.307 127.002 260.367 134.946 258.506 143.604C257.017 143.23 255.507 142.867 253.98 142.517C244.465 140.344 234.223 138.659 223.438 137.535C216.697 128.274 209.721 119.86 202.691 112.442ZM137.58 208.85C139.657 212.849 141.852 216.861 144.162 220.875C145.255 222.774 146.361 224.651 147.479 226.505C142.167 225.619 137.073 224.585 132.236 223.422C133.796 218.678 135.579 213.808 137.58 208.85ZM132.279 198.142C128.839 205.974 125.895 213.657 123.468 221.089C118.937 219.759 114.693 218.309 110.779 216.754C100.657 212.769 92.7915 208.068 87.9446 203.513C85.5139 201.25 83.8378 199.053 82.8293 197.111C81.8207 195.148 81.4289 193.483 81.4216 191.812V191.768V191.907L81.4144 192.038L81.4216 191.768V191.907V191.79C81.4362 190.118 81.828 188.468 82.8293 186.519C84.5562 183.14 88.4525 179.008 94.5764 175.074C100.745 171.067 109.056 167.296 118.951 164.116C119.237 165.04 119.53 165.967 119.832 166.898C123.093 176.971 127.255 187.467 132.279 198.142ZM195.633 260.934C194.886 260.141 194.138 259.334 193.391 258.514C190.413 255.252 187.432 251.776 184.469 248.104C187.006 248.171 189.563 248.209 192.138 248.216H192.153H192.922C197.594 248.213 202.206 248.109 206.745 247.91C203.067 252.542 199.35 256.893 195.633 260.934ZM213.744 191.575C213.744 179.703 204.129 170.091 192.269 170.091C180.416 170.091 170.801 179.703 170.801 191.575C170.801 203.44 180.416 213.06 192.269 213.06C204.129 213.06 213.744 203.44 213.744 191.575Z" fill="#0054D7"/>
<path fill-rule="evenodd" clip-rule="evenodd" d="M400.135 168.193C401.411 177.24 402.034 186.389 402.034 195.545C402.042 228.218 394.04 261.015 379.168 289.876L395.127 298.194C411.326 266.723 419.994 231.178 420.001 195.545C420.001 185.558 419.313 175.57 417.928 165.663L400.135 168.193Z" fill="#87DCB7"/>
<path d="M199.342 83.6806C209.165 70.4285 224.073 63.4622 239.068 63.4549C249.071 63.4622 259.039 66.5575 267.607 73.0116C280.171 82.4878 286.773 97.0132 286.787 111.963C286.787 113.244 286.737 114.524 286.635 115.812L301.209 116.939C301.333 115.278 301.391 113.624 301.391 111.963C301.405 92.6519 292.772 73.575 276.355 61.2084C265.198 52.7859 252.067 48.7173 239.068 48.7246C219.611 48.7173 200.278 57.7984 187.641 74.8556L199.342 83.6806Z" fill="#FFD576"/>
<path d="M293.672 262.844C294.257 266.277 294.546 269.688 294.546 273.042C294.546 301.283 274.473 326.311 246.006 331.3C242.618 331.892 239.245 332.177 235.922 332.177C227.529 332.177 219.431 330.343 212.056 326.997L208.055 336.005C216.65 339.906 226.12 342.046 235.922 342.046C239.801 342.046 243.73 341.71 247.674 341.016C280.88 335.179 304.305 306.024 304.305 273.042C304.305 269.119 303.972 265.145 303.286 261.163L293.672 262.844Z" fill="#F9555A"/>
</svg>
