<svg width="20" height="17" viewBox="0 0 20 17" fill="none" xmlns="http://www.w3.org/2000/svg">
<path d="M0.921875 0.835999V16.836H19.5885V0.835999H0.921875ZM17.8107 15.0582H2.69967V2.61379H17.8108V15.0582H17.8107Z" fill="#18191B"/>
<path d="M5.35938 10.5927L5.61178 10.5577L6.80134 7.48444H7.19631L8.36484 10.5577L8.6149 10.5927V10.8872H7.63801V10.5927L7.89509 10.5483L7.67073 9.92199H6.30822L6.07685 10.5483L6.33393 10.5927V10.8872H5.35938V10.5927ZM6.45078 9.53638H7.53051L7.00233 8.07571H6.98831L6.45078 9.53638Z" fill="#18191B"/>
<path d="M11.0641 7.48444C11.4272 7.48444 11.7092 7.57792 11.9102 7.76488C12.1127 7.95185 12.214 8.19802 12.214 8.5034C12.214 8.81189 12.1127 9.05884 11.9102 9.24424C11.7092 9.42965 11.4272 9.52235 11.0641 9.52235H10.342V10.5273L10.7229 10.5927V10.8872H9.50065V10.5927L9.88159 10.5273V7.84668L9.50065 7.78124V7.48444H9.88159H11.0641ZM10.342 9.16245H11.0641C11.2947 9.16245 11.4669 9.1009 11.5806 8.97782C11.6959 8.85318 11.7536 8.69659 11.7536 8.50807C11.7536 8.31955 11.6959 8.16218 11.5806 8.03598C11.4669 7.90978 11.2947 7.84668 11.0641 7.84668H10.342V9.16245Z" fill="#18191B"/>
<path d="M13.1395 7.78124V7.48444H14.3617V7.78124L13.9808 7.84668V10.5273L14.3617 10.5927V10.8872H13.1395V10.5927L13.5204 10.5273V7.84668L13.1395 7.78124Z" fill="#18191B"/>
</svg>
