<svg width="23" height="21" viewBox="0 0 23 21" fill="none" xmlns="http://www.w3.org/2000/svg">
<path d="M0.855469 10.4213C0.855469 12.0374 2.43356 13.546 4.92144 14.3964C4.42462 16.8975 4.83245 18.9135 6.19448 19.699C7.59443 20.5064 9.68011 19.9475 11.6597 18.217C13.5894 19.8776 15.5396 20.5311 16.9004 19.7434C18.2991 18.9337 18.7244 16.781 18.2139 14.2018C20.8052 13.3451 22.2547 12.0587 22.2547 10.4213C22.2547 8.84272 20.6738 7.47708 18.2194 6.63214C18.769 3.94636 18.3033 1.97936 16.8849 1.16142C15.5174 0.372836 13.5445 1.06016 11.5865 2.76416C9.54941 0.955527 7.59603 0.403367 6.17909 1.22358C4.81286 2.01443 4.42302 4.06705 4.92144 6.61439C2.5175 7.45252 0.855469 8.84911 0.855469 10.4213Z" fill="white"/>
<path d="M17.6997 7.47117C17.4974 7.40178 17.2935 7.3375 17.0879 7.27839C17.122 7.1399 17.1535 7.0008 17.1825 6.86114C17.6456 4.61314 17.3428 2.80215 16.3088 2.206C15.3174 1.63425 13.696 2.23039 12.0584 3.65541C11.8971 3.79615 11.7393 3.94095 11.5853 4.08966C11.4821 3.99077 11.3771 3.89381 11.2704 3.79882C9.55416 2.27497 7.83393 1.6329 6.80101 2.23081C5.81057 2.80417 5.51721 4.50674 5.93413 6.63716C5.97561 6.84814 6.02244 7.05802 6.07459 7.26662C5.83118 7.33575 5.5961 7.40943 5.3712 7.48782C3.3592 8.18927 2.07422 9.28871 2.07422 10.429C2.07422 11.6069 3.45357 12.7882 5.54934 13.5045C5.71928 13.5623 5.89063 13.6158 6.06323 13.6651C6.00716 13.8898 5.95737 14.1161 5.91394 14.3436C5.51645 16.437 5.82689 18.0992 6.81472 18.669C7.83502 19.2574 9.54743 18.6526 11.2149 17.1951C11.3467 17.0799 11.479 16.9576 11.6115 16.8295C11.7783 16.9905 11.9497 17.1468 12.1252 17.2983C13.7404 18.6881 15.3356 19.2494 16.3226 18.678C17.3419 18.088 17.6732 16.3023 17.243 14.1297C17.2102 13.9638 17.172 13.7943 17.1291 13.6217C17.2493 13.5862 17.3673 13.5496 17.4825 13.5114C19.6612 12.7896 21.0786 11.6226 21.0786 10.429C21.0786 9.28459 19.7523 8.17775 17.6997 7.47117Z" fill="#18191B"/>
<path d="M17.2278 12.7408C17.124 12.7752 17.0173 12.8084 16.9086 12.8406C16.6681 12.0792 16.3435 11.2695 15.9463 10.4331C16.3254 9.6164 16.6374 8.81714 16.8712 8.0606C17.0656 8.11695 17.2543 8.17624 17.4362 8.2389C19.1948 8.84422 20.2675 9.73937 20.2675 10.429C20.2675 11.1637 19.109 12.1175 17.2279 12.7408H17.2278ZM16.4473 14.2874C16.6375 15.2481 16.6647 16.1167 16.5387 16.7957C16.4255 17.4058 16.1979 17.8125 15.9164 17.9754C15.3175 18.3221 14.0367 17.8715 12.6555 16.6829C12.4971 16.5466 12.3375 16.4011 12.1776 16.2472C12.7131 15.6615 13.2482 14.9806 13.7705 14.2244C14.6893 14.1429 15.5573 14.0096 16.3445 13.8277C16.3832 13.9841 16.4176 14.1375 16.4473 14.2874ZM8.55391 17.9155C7.96878 18.1222 7.50275 18.1281 7.22107 17.9657C6.62156 17.62 6.37244 16.2852 6.71231 14.495C6.75273 14.2834 6.799 14.073 6.85109 13.864C7.6295 14.0362 8.49117 14.1601 9.41214 14.2348C9.93789 14.9747 10.4885 15.6548 11.0435 16.2503C10.9255 16.3644 10.8048 16.4756 10.6814 16.5837C9.94403 17.2283 9.20515 17.6855 8.554 17.9155H8.55391ZM5.81262 12.7363C4.88593 12.4195 4.12065 12.0079 3.59607 11.5588C3.12474 11.1551 2.88672 10.7543 2.88672 10.429C2.88672 9.7371 3.91846 8.85439 5.63919 8.25446C5.85517 8.17949 6.0733 8.11086 6.29329 8.04865C6.53115 8.82218 6.8431 9.63095 7.21956 10.4488C6.83822 11.2789 6.52181 12.1005 6.28177 12.8831C6.12421 12.838 5.96778 12.789 5.81262 12.7363ZM6.73157 6.48124C6.37437 4.65587 6.61155 3.27896 7.20846 2.93345C7.8443 2.5654 9.25015 3.09023 10.7319 4.40591C10.8266 4.49001 10.9218 4.57807 11.0171 4.66916C10.465 5.26203 9.91938 5.93699 9.39818 6.67258C8.50437 6.75543 7.64876 6.88849 6.86219 7.06671C6.81374 6.87265 6.77018 6.67741 6.73157 6.48116V6.48124ZM14.9292 8.50544C14.7434 8.18452 14.5507 7.86765 14.3513 7.55503C14.9577 7.63157 15.5386 7.73334 16.0842 7.8579C15.9204 8.38281 15.7163 8.93169 15.4759 9.49436C15.3003 9.16111 15.118 8.83141 14.9292 8.50544ZM11.5862 5.24933C11.9607 5.65498 12.3357 6.10798 12.7046 6.59941C11.9563 6.56405 11.2067 6.56388 10.4584 6.59891C10.8277 6.11201 11.2059 5.65969 11.5862 5.24933ZM8.22177 8.51099C8.03534 8.83437 7.85648 9.16205 7.68534 9.49377C7.44892 8.93303 7.24664 8.38172 7.08146 7.84932C7.62369 7.72795 8.20192 7.62879 8.80438 7.55352C8.60271 7.86807 8.40846 8.18731 8.22177 8.51099ZM8.82171 13.3625C8.19932 13.293 7.61234 13.1989 7.07027 13.0809C7.23806 12.5391 7.4448 11.9759 7.68627 11.4032C7.85813 11.7351 8.03777 12.063 8.22505 12.3865C8.41615 12.7166 8.6151 13.042 8.82171 13.3625ZM11.6087 15.6661C11.2239 15.2509 10.8401 14.7917 10.4652 14.2977C10.8291 14.312 11.2001 14.3192 11.5771 14.3192C11.9645 14.3192 12.3475 14.3106 12.7243 14.2937C12.3543 14.7967 11.9806 15.2566 11.6087 15.6661ZM15.4836 11.374C15.7376 11.953 15.9518 12.5131 16.1218 13.0458C15.5708 13.1715 14.9759 13.2728 14.349 13.348C14.5499 13.0295 14.7444 12.7071 14.9325 12.3809C15.1236 12.0494 15.3074 11.7137 15.4836 11.374ZM14.2292 11.9753C13.9413 12.4754 13.6372 12.966 13.3175 13.4464C12.7536 13.4867 12.1709 13.5074 11.5771 13.5074C10.9858 13.5074 10.4105 13.489 9.85647 13.4531C9.52841 12.9739 9.21859 12.4824 8.92768 11.9798C8.63813 11.4798 8.36768 10.969 8.11689 10.4486C8.36704 9.9279 8.63668 9.41685 8.92524 8.91647V8.91663C9.21372 8.41615 9.5211 7.9268 9.84672 7.44965C10.4119 7.40692 10.9914 7.38455 11.5772 7.38455C12.1656 7.38455 12.7459 7.40709 13.3109 7.45015C13.6332 7.92657 13.9386 8.41422 14.2266 8.91218C14.5161 9.41144 14.7894 9.92 15.0459 10.437C14.792 10.9593 14.5196 11.4724 14.2293 11.9753H14.2292ZM15.904 2.90931C16.5403 3.27635 16.7879 4.75638 16.388 6.69731C16.3618 6.82375 16.3333 6.94971 16.3026 7.07512C15.5142 6.8932 14.658 6.75778 13.7615 6.67368C13.2393 5.93009 12.6983 5.25396 12.1551 4.66874C12.2974 4.53153 12.4432 4.39787 12.5921 4.26789C13.9952 3.04683 15.3065 2.56473 15.904 2.90931Z" fill="white"/>
<path d="M11.5759 8.73196C12.5132 8.73196 13.2729 9.49178 13.2729 10.429C13.2729 11.3663 12.5132 12.1261 11.5759 12.1261C10.6387 12.1261 9.87891 11.3663 9.87891 10.429C9.87891 9.49178 10.6387 8.73196 11.5759 8.73196Z" fill="#18191B"/>
</svg>
