<svg width="18" height="17" viewBox="0 0 18 17" fill="none" xmlns="http://www.w3.org/2000/svg">
<path d="M12.1472 12.0103C12.7692 11.9459 13.2411 11.4097 13.2196 10.7663C13.1982 10.1228 12.662 9.60808 12.0185 9.60808H11.9756C11.3107 9.62953 10.796 10.1872 10.8174 10.8521C10.8389 11.1738 10.9676 11.4526 11.1606 11.6457C10.4314 13.0827 9.31604 14.1336 7.64309 15.013C6.50633 15.6136 5.32668 15.828 4.14703 15.6779C3.18186 15.5492 2.43118 15.1203 1.95932 14.4125C1.27298 13.3615 1.20863 12.2248 1.78773 11.088C2.19525 10.273 2.83869 9.67242 3.24621 9.37215C3.16042 9.09332 3.03173 8.62146 2.96738 8.27829C-0.142604 10.5303 0.179119 13.576 1.12284 15.013C1.83063 16.0854 3.26766 16.7503 4.85482 16.7503C5.28379 16.7503 5.71275 16.7074 6.14171 16.6002C8.88708 16.064 10.9676 14.4339 12.1472 12.0103Z" fill="#18191B"/>
<path d="M15.9204 9.35046C14.2903 7.44157 11.8881 6.39061 9.14275 6.39061H8.79958C8.60655 6.00454 8.19903 5.74716 7.74862 5.74716H7.70572C7.04083 5.76861 6.52607 6.32626 6.54752 6.99116C6.56897 7.6346 7.10517 8.14936 7.74862 8.14936H7.79152C8.26338 8.12791 8.67089 7.82764 8.84248 7.42012H9.22854C10.8586 7.42012 12.4029 7.89198 13.797 8.81425C14.8694 9.52204 15.6416 10.4443 16.0705 11.5596C16.4351 12.4604 16.4137 13.3398 16.0276 14.0905C15.4271 15.2273 14.419 15.8493 13.0892 15.8493C12.2313 15.8493 11.4163 15.5919 10.9873 15.3988C10.7514 15.6133 10.3224 15.9565 10.0221 16.171C10.9444 16.5999 11.8881 16.8359 12.7889 16.8359C14.848 16.8359 16.3708 15.6991 16.9499 14.5624C17.5719 13.3184 17.529 11.1736 15.9204 9.35046Z" fill="#18191B"/>
<path d="M5.02302 12.3749C5.04447 13.0184 5.58067 13.5331 6.22412 13.5331H6.26701C6.93191 13.5117 7.44666 12.954 7.42521 12.2891C7.40377 11.6457 6.86756 11.1309 6.22412 11.1309H6.18122C6.13832 11.1309 6.07398 11.1309 6.03108 11.1524C5.15171 9.69392 4.78709 8.10675 4.91578 6.3909C5.00157 5.104 5.43053 3.9887 6.18122 3.06643C6.80322 2.27284 8.00431 1.88678 8.81935 1.86533C11.0929 1.82243 12.058 4.65359 12.1224 5.79035C12.4012 5.85469 12.8731 6.00483 13.1948 6.11207C12.9374 2.63746 10.7926 0.835815 8.73355 0.835815C6.80322 0.835815 5.02302 2.22995 4.31523 4.28897C3.32861 7.03434 3.97206 9.67247 5.17315 11.7529C5.06591 11.9031 5.00157 12.139 5.02302 12.3749Z" fill="#18191B"/>
</svg>
